<svg xmlns="http://www.w3.org/2000/svg" xmlns:xlink="http://www.w3.org/1999/xlink" xml:space="preserve" id="_x32_" version="1.1" viewBox="0 0 512 512"><style>.st0{fill:#000}</style><path d="M451.528 129.424H60.472C27.077 129.424 0 156.494 0 189.896v40.313l212.743 41.306v-3.41c0-11.139 9.028-20.16 20.16-20.16h45.014c11.132 0 20.159 9.021 20.159 20.16v3.41L512 229.813v-39.917c0-33.402-27.076-60.472-60.472-60.472z" class="st0"/><path d="M298.076 341.563c0 11.139-9.028 20.159-20.159 20.159h-45.014c-11.132 0-20.16-9.02-20.16-20.159v-40L0 260.258v164.25c0 33.403 27.077 60.472 60.472 60.472h391.056c33.396 0 60.472-27.069 60.472-60.472V259.854l-213.924 41.709v40z" class="st0"/><path d="M234.076 269.278h42.667v71.111h-42.667zM188.798 71.826c.007-1.833.688-3.305 1.875-4.535 1.222-1.187 2.702-1.861 4.528-1.874h121.597c1.827.014 3.306.687 4.528 1.874 1.188 1.23 1.861 2.702 1.875 4.535v32h38.396v-32a44.734 44.734 0 0 0-13.125-31.68 44.737 44.737 0 0 0-31.674-13.125H195.202a44.772 44.772 0 0 0-31.68 13.125 44.735 44.735 0 0 0-13.119 31.68v32h38.396v-32z" class="st0"/></svg>