<svg xmlns="http://www.w3.org/2000/svg" xmlns:xlink="http://www.w3.org/1999/xlink" xml:space="preserve" fill="#000000" viewBox="0 0 512 512"><path d="M498.759 0H15.204C9.963 0 4.741 3.61 4.741 8.845v493.037c0 5.237 5.222 10.118 10.463 10.118H498.76c5.241 0 8.5-4.881 8.5-10.118V8.845C507.259 3.61 504 0 498.759 0zm-10.463 493.037H23.704V18.963h464.593v474.074z"/><path d="M223.796 151.704h-67.352V84.697c0-5.236-4.241-9.482-9.482-9.482s-9.481 4.246-9.481 9.482v67.007H72.093c-5.241 0-9.481 4.245-9.481 9.482s4.241 9.482 9.481 9.482h65.389V236.4c0 5.237 4.241 9.482 9.481 9.482s9.482-4.244 9.482-9.482v-65.734h67.352c5.241 0 9.482-4.245 9.482-9.482s-4.242-9.48-9.483-9.48zM441.87 151.704H290.167c-5.241 0-9.482 4.245-9.482 9.482s4.241 9.482 9.482 9.482H441.87c5.241 0 9.482-4.245 9.482-9.482s-4.241-9.482-9.482-9.482zM206.898 405.206l-47.866-47.865 47.866-47.867a9.476 9.476 0 0 0 0-13.406 9.478 9.478 0 0 0-13.408 0l-47.866 47.865-47.866-47.865a9.478 9.478 0 0 0-13.408 0 9.476 9.476 0 0 0 0 13.406l47.866 47.867-47.866 47.865a9.477 9.477 0 0 0 0 13.407 9.452 9.452 0 0 0 6.704 2.779 9.452 9.452 0 0 0 6.704-2.779l47.866-47.866 47.866 47.866a9.452 9.452 0 0 0 6.704 2.779 9.452 9.452 0 0 0 6.704-2.779 9.477 9.477 0 0 0 0-13.407zM441.87 322.37H290.167c-5.241 0-9.482 4.245-9.482 9.482s4.241 9.481 9.482 9.481H441.87c5.241 0 9.482-4.245 9.482-9.481s-4.241-9.482-9.482-9.482zM441.87 379.259H290.167c-5.241 0-9.482 4.245-9.482 9.481s4.241 9.482 9.482 9.482H441.87c5.241 0 9.482-4.245 9.482-9.482s-4.241-9.481-9.482-9.481z"/></svg>