<svg xmlns="http://www.w3.org/2000/svg" xmlns:xlink="http://www.w3.org/1999/xlink" xml:space="preserve" id="_x32_" version="1.1" viewBox="0 0 512 512"><style>.st0{fill:#000}</style><path d="M225.558 316.607h83.609c16.813 0 30.422-13.625 30.422-30.422s-13.609-30.391-30.422-30.391H187.558c-76.031 0-100.094 31.672-126.703 58.266l-48.281 42.172a14.394 14.394 0 0 0-4.938 10.828v140.156c0 1.875 1.094 3.563 2.797 4.344s3.703.516 5.125-.719l93.313-79.984a14.423 14.423 0 0 1 11.922-3.219l145.406 26.422c10.141 1.859 20.594-.469 29.016-6.422 0 0 185.609-129.047 199.281-140.469 13.078-11.984 12.922-29.375.938-42.422-12-13.094-34.375-10.313-49.297.734-13.672 11.406-107.078 72.781-107.078 72.781h-113.5l-.359.172c-5.984-.203-10.656-5.203-10.469-11.188.219-5.969 5.219-10.656 11.188-10.453l-.361-.186zM362.698-.002c-27.672 0-51.813 14.797-65.172 36.844 42.719 15.672 73.344 56.641 73.344 104.734 0 3.547-.203 7.047-.531 10.516 38.516-3.844 68.594-36.328 68.594-75.859 0-42.094-34.125-76.235-76.235-76.235z" class="st0"/><path d="M259.245 54.451c-48.109 0-87.125 39-87.125 87.125 0 48.109 39.016 87.125 87.125 87.125s87.125-39.016 87.125-87.125c0-48.125-39.016-87.125-87.125-87.125zm34.625 79.969h-23.859l-2.563 4v9.547h26.422v13.563h-26.422v20.469h-16.406V161.53h-26.438v-13.563h26.438v-9.531l-2.563-4.016h-23.875v-11.563h16.406l-13.938-21.719h13.906l18.25 28.422 18.281-28.422h13.906l-13.938 21.719h16.391v11.563z" class="st0"/></svg>