<svg xmlns="http://www.w3.org/2000/svg" xmlns:xlink="http://www.w3.org/1999/xlink" xml:space="preserve" id="_x32_" version="1.1" viewBox="0 0 512 512"><style>.st0{fill:#000}</style><path d="M125.156 243.672c2.656-1.766 4-4.531 4-8.344 0-3.953-1.203-6.75-3.594-8.422-2.406-1.688-6.172-2.531-11.281-2.531h-9.688v21.906h8.844c5.141 0 9.047-.875 11.719-2.609zM128.938 268.391c-1.188-.906-2.734-1.609-4.594-2.109-1.891-.484-4.156-.719-6.844-.719h-12.484v22.203h12.547c2.813 0 5.188-.313 7.063-.938 1.906-.641 3.438-1.469 4.578-2.531a9.075 9.075 0 0 0 2.484-3.656c.5-1.391.75-2.891.75-4.453 0-1.641-.281-3.125-.844-4.438-.563-1.297-1.438-2.406-2.656-3.359z" class="st0"/><path d="M230.781 256c0-63.703-51.672-115.391-115.406-115.391C51.656 140.609 0 192.297 0 256c0 63.734 51.656 115.391 115.375 115.391 63.734 0 115.406-51.657 115.406-115.391zm-72.812 32.031c-1.703 3.531-4.188 6.594-7.469 9.141-3.25 2.578-6.063 4.578-10.844 6.047-3.781 1.141-8.516 1.828-12.938 2.063v13.359H114.75v-13.25h-10.813v13.25H91.984v-13.25H70.219v-8c0-2.359-.156-3.781 2.281-4.266.219-.031.516-.094.922-.141.391-.078 5.172-.375 6.25-.375 1.922 0 2.828-1.828 2.828-3.656v-65.906c0-2.219-1.188-3.094-2.828-3.313-1.063-.156-5.859-.313-6.25-.375-.406-.078-.703-.109-.922-.156-2.438-.484-2.281-1.906-2.281-4.266v-8h21.765v-13.578h11.953v13.609l10.813.032v-13.641h11.969v13.844c6.438.531 14.422 2.578 19.906 6.813 3.063 2.391 5.453 5.016 6.906 8.234 1.469 3.234 2.203 6.859 2.203 10.891 0 2.344-.359 4.547-1.094 6.641-.734 2.125-1.875 4.094-3.406 5.922-1.547 1.859-6.672 7.047-11.281 8.828 14.031 2.438 20.578 10.344 20.578 21.922 0 4.171-.843 8.03-2.562 11.577zM155.938 121.703c27.281-21.391 61.531-34.141 98.906-34.156.469 0 .922.047 1.406.047l-12.063 36.422 119.844-29.297-82.453-83.672L266.875 55.5c-4-.25-8-.406-12.031-.406-53.234 0-101.563 21.625-136.422 56.516-1.234 1.219-2.422 2.516-3.609 3.781.188 0 .375-.016.563-.016 14.14 0 27.765 2.234 40.562 6.328zM356.063 390.297c-27.281 21.391-61.531 34.141-98.906 34.156-.469 0-.938-.047-1.406-.047L267.797 388l-119.828 29.281 82.438 83.672 14.719-44.453c3.984.266 8 .406 12.031.406 53.219 0 101.563-21.609 136.406-56.5 1.25-1.234 2.422-2.516 3.625-3.797-.188 0-.391.016-.563.016a132.74 132.74 0 0 1-40.562-6.328zM430.156 213.828h-14.5l-19.047 29.641-19.046-29.641h-14.516l14.547 22.641h-17.125v12.094h24.906l2.672 4.156v9.953h-27.578v14.141h27.578v21.359h17.109v-21.359h27.594v-14.141h-27.594v-9.969l2.688-4.14h24.906v-12.094h-17.125z" class="st0"/><path d="M396.625 140.609c-63.75 0-115.406 51.688-115.406 115.391 0 63.734 51.656 115.391 115.406 115.391C460.344 371.391 512 319.734 512 256c0-63.703-51.656-115.391-115.375-115.391zm0 201.938c-47.719 0-86.563-38.828-86.563-86.547s38.844-86.531 86.563-86.531c47.703 0 86.531 38.813 86.531 86.531s-38.828 86.547-86.531 86.547z" class="st0"/></svg>